# Blender v2.93.5 OBJ File: ''
# www.blender.org
mtllib floodLightLight.mtl
o Light.001_Cube.001
v -0.190000 3.960000 0.186832
v -0.190000 4.000000 0.186832
v -0.190000 3.960000 -0.193168
v -0.190000 4.000000 -0.193168
v 0.190000 3.960000 0.186832
v 0.190000 4.000000 0.186832
v 0.190000 3.960000 -0.193168
v 0.190000 4.000000 -0.193168
vt 0.174535 0.174535
vt 0.174534 0.349069
vt 0.000000 0.349069
vt 0.000000 0.174535
vt 0.174535 0.349069
vt 0.174534 0.523604
vt 0.000000 0.523603
vt 0.000000 0.349069
vt 0.349069 0.000000
vt 0.349069 0.174535
vt 0.174535 0.174534
vt 0.174535 0.000000
vt 0.349069 0.174535
vt 0.349069 0.349069
vt 0.349069 0.000000
vt 0.523604 0.000000
vt 0.523603 0.174535
vt 0.349069 0.174534
vt 0.000000 0.000000
vt 0.174535 0.000000
vt 0.174534 0.174535
vt 0.000000 0.174534
vn -1.0000 0.0000 0.0000
vn 0.0000 0.0000 -1.0000
vn 1.0000 0.0000 0.0000
vn 0.0000 0.0000 1.0000
vn 0.0000 -1.0000 0.0000
vn 0.0000 1.0000 0.0000
usemtl lampPostGrey
s off
f 1/1/1 2/2/1 4/3/1 3/4/1
f 3/5/2 4/6/2 8/7/2 7/8/2
f 7/9/3 8/10/3 6/11/3 5/12/3
f 5/13/4 6/14/4 2/2/4 1/1/4
f 3/15/5 7/16/5 5/17/5 1/18/5
f 8/19/6 4/20/6 2/21/6 6/22/6
