# Blender v2.93.5 OBJ File: ''
# www.blender.org
mtllib floodLightLight2.mtl
o Light.001_Cube.001
v -0.190000 -0.020000 0.186833
v -0.190000 0.020000 0.186833
v -0.190000 0.020000 -0.193167
v -0.190000 -0.020000 -0.193167
v 0.190000 0.020000 -0.193167
v 0.190000 -0.020000 -0.193167
v 0.190000 0.020000 0.186833
v 0.190000 -0.020000 0.186833
vt 0.174534 0.349069
vt 0.000000 0.174535
vt 0.174535 0.174535
vt 0.174534 0.523604
vt 0.000000 0.349069
vt 0.174535 0.349069
vt 0.349069 0.174535
vt 0.174535 0.000000
vt 0.349069 0.000000
vt 0.349069 0.349069
vt 0.349069 0.174535
vt 0.523604 0.000000
vt 0.349069 0.174534
vt 0.349069 0.000000
vt 0.174535 0.000000
vt 0.000000 0.174534
vt 0.000000 0.000000
vt 0.000000 0.349069
vt 0.000000 0.523603
vt 0.174535 0.174534
vt 0.523603 0.174535
vt 0.174534 0.174535
vn -1.0000 -0.0000 0.0000
vn 0.0000 0.0000 -1.0000
vn 1.0000 0.0000 0.0000
vn 0.0000 -0.0000 1.0000
vn 0.0000 -1.0000 0.0000
vn 0.0000 1.0000 0.0000
usemtl lampPostGrey
s 1
f 2/1/1 4/2/1 1/3/1
f 3/4/2 6/5/2 4/6/2
f 5/7/3 8/8/3 6/9/3
f 7/10/4 1/3/4 8/11/4
f 6/12/5 1/13/5 4/14/5
f 3/15/6 7/16/6 5/17/6
f 2/1/1 3/18/1 4/2/1
f 3/4/2 5/19/2 6/5/2
f 5/7/3 7/20/3 8/8/3
f 7/10/4 2/1/4 1/3/4
f 6/12/5 8/21/5 1/13/5
f 3/15/6 2/22/6 7/16/6
