# Blender v2.93.5 OBJ File: ''
# www.blender.org
mtllib untitled.mtl
o Cube
v 2.500000 3.000000 -2.500000
v 2.500000 0.000000 -2.500000
v 2.500000 3.000000 2.500000
v 2.500000 0.000000 2.500000
v -2.500000 3.000000 -2.500000
v -2.500000 0.000000 -2.500000
v -2.500000 3.000000 2.500000
v -2.500000 0.000000 2.500000
vt 0.292893 0.000000
vt 0.000000 0.292893
vt 0.000000 0.000000
vt 0.292893 0.878680
vt 0.000000 0.585786
vt 0.292893 0.585786
vt 0.585786 0.585787
vt 0.292893 0.292893
vt 0.585787 0.292893
vt 0.585787 0.000000
vt 0.292893 0.292893
vt 0.292893 0.000000
vt 0.292893 0.585787
vt 0.000000 0.292893
vt 0.292893 0.292893
vt 0.878680 0.292893
vt 0.878680 0.000000
vt 0.292893 0.292893
vt 0.000000 0.878680
vt 0.292893 0.585786
vt 0.585786 0.292893
vt 0.000000 0.585786
vt 0.585786 0.292893
vn 0.0000 1.0000 0.0000
vn 0.0000 0.0000 1.0000
vn -1.0000 0.0000 0.0000
vn 0.0000 -1.0000 0.0000
vn 1.0000 0.0000 0.0000
vn 0.0000 0.0000 -1.0000
usemtl Material
s off
f 5/1/1 3/2/1 1/3/1
f 3/4/2 8/5/2 4/6/2
f 7/7/3 6/8/3 8/9/3
f 2/10/4 8/11/4 6/12/4
f 1/13/5 4/14/5 2/15/5
f 5/16/6 2/10/6 6/17/6
f 5/1/1 7/18/1 3/2/1
f 3/4/2 7/19/2 8/5/2
f 7/7/3 5/20/3 6/8/3
f 2/10/4 4/21/4 8/11/4
f 1/13/5 3/22/5 4/14/5
f 5/16/6 1/23/6 2/10/6
o Cone
v 2.828427 3.000000 -2.828427
v 2.828427 3.000000 2.828427
v -2.828427 3.000000 2.828427
v -2.828427 3.000000 -2.828427
v 0.000000 5.000000 0.000000
vt 0.292893 0.896447
vt 0.396447 0.585786
vt 0.500000 0.896447
vt 0.585786 0.914214
vt 0.689340 0.603553
vt 0.792893 0.914214
vt 0.792893 0.603553
vt 1.000000 0.810660
vt 0.792893 0.810660
vt 0.585786 0.603553
vt 0.689340 0.292893
vt 0.792893 0.603553
vt 0.896447 0.292893
vt 1.000000 0.603553
vt 1.000000 0.603553
vn 0.5774 0.8165 0.0000
vn -0.0000 0.8165 0.5774
vn 0.0000 -1.0000 0.0000
vn -0.5774 0.8165 0.0000
vn 0.0000 0.8165 -0.5774
usemtl None
s off
f 9/24/7 13/25/7 10/26/7
f 10/27/8 13/28/8 11/29/8
f 10/30/9 12/31/9 9/32/9
f 11/33/10 13/34/10 12/35/10
f 12/35/11 13/36/11 9/37/11
f 10/30/9 11/38/9 12/31/9
