# Blender v2.93.5 OBJ File: 'terrace.blend'
# www.blender.org
mtllib terrace.mtl
o Cube
v 7.500000 3.000000 -2.500000
v 7.500000 0.000000 -2.500000
v 7.500000 3.000000 2.500000
v 7.500000 0.000000 2.500000
v -7.500000 3.000000 -2.500000
v -7.500000 0.000000 -2.500000
v -7.500000 3.000000 2.500000
v -7.500000 0.000000 2.500000
vt 0.276547 0.000000
vt 0.000000 0.276547
vt 0.000000 0.000000
vt 0.276547 0.553093
vt 0.000000 0.276547
vt 0.276547 0.276547
vt 0.553093 0.276547
vt 0.276547 0.000000
vt 0.553093 0.000000
vt 0.553093 0.276547
vt 0.276547 0.553093
vt 0.276547 0.276547
vt 0.276547 0.829640
vt 0.000000 0.553094
vt 0.276547 0.553094
vt 0.829640 0.276547
vt 0.553094 0.000000
vt 0.829640 0.000000
vt 0.276547 0.276547
vt 0.000000 0.553093
vt 0.276547 0.276547
vt 0.553093 0.553093
vt 0.000000 0.829640
vt 0.553094 0.276547
vn 0.0000 1.0000 0.0000
vn 0.0000 0.0000 1.0000
vn -1.0000 0.0000 0.0000
vn 0.0000 -1.0000 0.0000
vn 1.0000 0.0000 0.0000
vn 0.0000 0.0000 -1.0000
usemtl Material
s off
f 5/1/1 3/2/1 1/3/1
f 3/4/2 8/5/2 4/6/2
f 7/7/3 6/8/3 8/9/3
f 2/10/4 8/11/4 6/12/4
f 1/13/5 4/14/5 2/15/5
f 5/16/6 2/17/6 6/18/6
f 5/1/1 7/19/1 3/2/1
f 3/4/2 7/20/2 8/5/2
f 7/7/3 5/21/3 6/8/3
f 2/10/4 4/22/4 8/11/4
f 1/13/5 3/23/5 4/14/5
f 5/16/6 1/24/6 2/17/6
o Cylinder
v 7.500000 4.500000 0.000000
v -7.500000 4.500000 -0.000000
v 7.500000 3.000000 2.511474
v -7.500000 3.000000 2.511473
v 7.500000 3.000000 -2.511474
v -7.500000 3.000000 -2.511474
vt 0.792590 0.829640
vt 0.553093 0.553094
vt 0.792590 0.553094
vt 0.516043 0.829640
vt 0.276547 0.553094
vt 0.516043 0.553094
vt 0.792590 0.396295
vt 1.000000 0.276547
vt 1.000000 0.516043
vt 0.792590 0.553093
vt 0.553093 0.276547
vt 0.792590 0.276547
vt 1.000000 0.755540
vt 0.792590 0.635791
vt 1.000000 0.516043
vt 0.553093 0.829640
vt 0.276547 0.829640
vt 0.553093 0.553093
vn -0.0000 0.8585 0.5128
vn 0.0000 -1.0000 0.0000
vn -1.0000 -0.0000 0.0000
vn -0.0000 0.8585 -0.5128
vn 1.0000 0.0000 0.0000
usemtl None
s off
f 10/25/7 11/26/7 9/27/7
f 12/28/8 13/29/8 11/30/8
f 12/31/9 10/32/9 14/33/9
f 14/34/10 9/35/10 13/36/10
f 9/37/11 11/38/11 13/39/11
f 10/25/7 12/40/7 11/26/7
f 12/28/8 14/41/8 13/29/8
f 14/34/10 10/42/10 9/35/10
